
<svg width="630" height="338" viewBox="0 0 630 338" claas="fill-current" fill="none" xmlns="http://www.w3.org/2000/svg">
<g clip-path="url(#clip0_2959_75772)">
<path d="M561.572 115.161C536.816 94.0435 506.971 -33.3104 404.728 33.0207C351.904 67.2905 262.834 3.60095 189.11 25.5972C121.401 45.8004 114.874 112.363 121.426 134.052C134.659 177.868 93.4745 184.385 55.2738 203.209C-4.65864 232.737 39.4093 336.508 96.0279 337.004C152.646 337.5 495.604 336.014 495.604 336.014C495.604 336.014 577.844 336.223 612.044 290.833C648.847 241.989 625.516 169.702 561.572 115.161Z" opacity=".5" fill="#BBDEFB"/>
<path d="M457.247 273.614H598.191V36.808L457.247 36.808V273.614Z" fill="#AED3FF"/>
<path d="M593.772 36.8081H452.83V273.614H593.772V36.8081Z" fill="#1976D2"/>
<path d="M584.51 50.0383H462.429V132.521H584.51V50.0383Z" fill="#F3F9FF"/>
<path d="M582.405 209.925H516.885V253.965H582.405V209.925Z" fill="#F3F9FF"/>
<path d="M467.461 92.1425C467.461 92.1425 488.306 89.5463 501.043 101.281C513.78 113.016 537.509 102.321 547.063 101.281C563.682 99.4729 576.694 104.907 580.554 110.88V128.802H467.461V92.1425Z" fill="#069550"/>
<path d="M484.493 63.2966H483.62V91.281H484.493V63.2966Z" fill="#A6C7F9"/>
<path d="M518.771 75.3032H517.897V103.288H518.771V75.3032Z" fill="#A6C7F9"/>
<path d="M554.138 68.9727H553.264V96.9571H554.138V68.9727Z" fill="#A6C7F9"/>
<path d="M494.244 67.5876H487.548C487.355 67.5869 487.17 67.51 487.034 67.3737C486.898 67.2374 486.821 67.0526 486.82 66.8598C486.821 66.667 486.898 66.4823 487.034 66.346C487.17 66.2096 487.355 66.1327 487.548 66.1321H494.244C494.436 66.1327 494.621 66.2096 494.758 66.346C494.894 66.4823 494.971 66.667 494.971 66.8598C494.971 67.0526 494.894 67.2374 494.758 67.3737C494.621 67.51 494.436 67.5869 494.244 67.5876Z" fill="#A6C7F9"/>
<path d="M494.244 70.2089H487.548C487.355 70.2083 487.17 70.1314 487.034 69.995C486.898 69.8587 486.821 69.674 486.82 69.4812C486.821 69.2884 486.898 69.1036 487.034 68.9673C487.17 68.831 487.355 68.7541 487.548 68.7534H494.244C494.436 68.7541 494.621 68.831 494.758 68.9673C494.894 69.1036 494.971 69.2884 494.971 69.4812C494.971 69.674 494.894 69.8587 494.758 69.995C494.621 70.1314 494.436 70.2083 494.244 70.2089Z" fill="#A6C7F9"/>
<path d="M528.012 81.853H521.317C521.124 81.8523 520.939 81.7754 520.803 81.6391C520.666 81.5027 520.59 81.318 520.589 81.1252C520.59 80.9324 520.666 80.7477 520.803 80.6113C520.939 80.475 521.124 80.3981 521.317 80.3975H528.012C528.205 80.3981 528.39 80.475 528.526 80.6113C528.663 80.7477 528.739 80.9324 528.74 81.1252C528.739 81.318 528.663 81.5027 528.526 81.6391C528.39 81.7754 528.205 81.8523 528.012 81.853Z" fill="#A6C7F9"/>
<path d="M528.012 84.4191H521.317C521.124 84.4185 520.939 84.3416 520.803 84.2052C520.666 84.0689 520.59 83.8842 520.589 83.6914C520.59 83.4986 520.666 83.3138 520.803 83.1775C520.939 83.0412 521.124 82.9643 521.317 82.9636H528.012C528.205 82.9643 528.39 83.0412 528.526 83.1775C528.663 83.3138 528.739 83.4986 528.74 83.6914C528.739 83.8842 528.663 84.0689 528.526 84.2052C528.39 84.3416 528.205 84.4185 528.012 84.4191Z" fill="#A6C7F9"/>
<path d="M563.964 71.2995H557.268C557.076 71.2988 556.891 71.2219 556.755 71.0856C556.618 70.9493 556.541 70.7646 556.541 70.5717C556.541 70.3789 556.618 70.1942 556.755 70.0579C556.891 69.9215 557.076 69.8447 557.268 69.844H563.964C564.157 69.8447 564.342 69.9215 564.478 70.0579C564.615 70.1942 564.691 70.3789 564.692 70.5717C564.691 70.7646 564.615 70.9493 564.478 71.0856C564.342 71.2219 564.157 71.2988 563.964 71.2995Z" fill="#A6C7F9"/>
<path d="M563.964 73.8654H557.268C557.076 73.8647 556.891 73.7879 556.755 73.6515C556.618 73.5152 556.541 73.3305 556.541 73.1377C556.541 72.9449 556.618 72.7601 556.755 72.6238C556.891 72.4875 557.076 72.4106 557.268 72.4099H563.964C564.157 72.4106 564.342 72.4875 564.478 72.6238C564.615 72.7601 564.691 72.9449 564.692 73.1377C564.691 73.3305 564.615 73.5152 564.478 73.6515C564.342 73.7879 564.157 73.8647 563.964 73.8654Z" fill="#A6C7F9"/>
<path d="M584.394 155.573C585.461 149.001 580.998 142.809 574.427 141.743C567.855 140.676 561.663 145.138 560.596 151.71C559.53 158.281 563.992 164.473 570.564 165.54C577.135 166.607 583.327 162.144 584.394 155.573Z" fill="#F3F9FF"/>
<path d="M583.488 153.619C583.487 155.76 582.863 157.855 581.693 159.648C580.522 161.441 578.855 162.855 576.895 163.717C574.935 164.579 572.766 164.852 570.653 164.502C568.541 164.153 566.575 163.197 564.997 161.75L572.456 153.619V142.586C575.381 142.587 578.187 143.75 580.256 145.818C582.324 147.887 583.487 150.693 583.488 153.619Z" fill="#FFA600"/>
<path d="M568.253 151.674H564.292C564.204 151.674 564.12 151.64 564.058 151.578C563.995 151.516 563.96 151.432 563.959 151.344C563.959 151.256 563.994 151.172 564.057 151.109C564.119 151.047 564.204 151.012 564.292 151.012H568.253C568.341 151.012 568.426 151.047 568.488 151.109C568.55 151.172 568.585 151.256 568.585 151.344C568.585 151.432 568.549 151.516 568.487 151.578C568.425 151.64 568.341 151.674 568.253 151.674Z" fill="#A6C7F9"/>
<path d="M530.473 153.618C530.473 151.234 531.18 148.904 532.504 146.921C533.829 144.939 535.711 143.394 537.914 142.482C540.117 141.569 542.541 141.33 544.879 141.796C547.217 142.261 549.365 143.409 551.051 145.095C552.737 146.78 553.885 148.928 554.35 151.267C554.815 153.605 554.576 156.029 553.664 158.232C552.752 160.434 551.207 162.317 549.224 163.641C547.242 164.966 544.911 165.673 542.527 165.673C539.33 165.673 536.264 164.403 534.003 162.142C531.743 159.882 530.473 156.815 530.473 153.618Z" fill="#F3F9FF"/>
<path d="M542.527 153.619L549.306 162.324C547.373 163.829 544.993 164.648 542.543 164.652C540.092 164.655 537.71 163.842 535.773 162.342C533.835 160.841 532.453 158.738 531.843 156.365C531.233 153.991 531.431 151.482 532.405 149.234C533.379 146.985 535.074 145.125 537.223 143.947C539.372 142.768 541.851 142.339 544.271 142.726C546.691 143.113 548.913 144.295 550.586 146.085C552.26 147.875 553.29 150.171 553.514 152.611L542.527 153.619Z" fill="#FFA600"/>
<path d="M551.023 156.356H548.253C548.166 156.356 548.082 156.321 548.019 156.259C547.957 156.197 547.922 156.113 547.921 156.026C547.921 155.982 547.93 155.939 547.946 155.899C547.963 155.858 547.988 155.822 548.018 155.791C548.049 155.76 548.086 155.735 548.126 155.719C548.167 155.702 548.21 155.693 548.253 155.693H551.023C551.111 155.694 551.195 155.729 551.257 155.792C551.319 155.854 551.353 155.938 551.353 156.026C551.353 156.113 551.319 156.197 551.257 156.259C551.195 156.321 551.111 156.356 551.023 156.356Z" fill="#A6C7F9"/>
<path d="M560.401 186.826C560.401 184.442 561.108 182.111 562.433 180.129C563.757 178.146 565.64 176.601 567.843 175.689C570.045 174.776 572.469 174.538 574.807 175.003C577.146 175.468 579.294 176.616 580.979 178.302C582.665 179.988 583.813 182.136 584.278 184.474C584.744 186.812 584.505 189.236 583.593 191.439C582.68 193.641 581.135 195.524 579.153 196.849C577.17 198.173 574.84 198.88 572.456 198.88C569.259 198.88 566.193 197.61 563.932 195.35C561.671 193.089 560.401 190.023 560.401 186.826Z" fill="#F3F9FF"/>
<path d="M583.488 186.826C583.487 188.967 582.863 191.062 581.693 192.855C580.522 194.648 578.855 196.062 576.895 196.924C574.935 197.786 572.766 198.059 570.653 197.709C568.541 197.36 566.575 196.404 564.997 194.957L572.456 186.826V175.793C575.381 175.794 578.187 176.957 580.256 179.025C582.324 181.094 583.487 183.9 583.488 186.826Z" fill="#FFA600"/>
<path d="M568.253 184.876H564.292C564.204 184.876 564.12 184.841 564.057 184.778C563.995 184.716 563.96 184.632 563.959 184.544C563.959 184.456 563.994 184.371 564.057 184.309C564.119 184.247 564.204 184.212 564.292 184.212H568.253C568.341 184.212 568.426 184.247 568.488 184.309C568.55 184.371 568.585 184.456 568.585 184.544C568.585 184.632 568.549 184.716 568.487 184.778C568.425 184.841 568.341 184.876 568.253 184.876Z" fill="#A6C7F9"/>
<path d="M530.473 186.826C530.473 184.442 531.18 182.111 532.504 180.129C533.829 178.146 535.711 176.601 537.914 175.689C540.117 174.776 542.541 174.538 544.879 175.003C547.217 175.468 549.365 176.616 551.051 178.302C552.737 179.988 553.885 182.136 554.35 184.474C554.815 186.812 554.576 189.236 553.664 191.439C552.752 193.641 551.207 195.524 549.224 196.849C547.242 198.173 544.911 198.88 542.527 198.88C539.33 198.88 536.264 197.61 534.003 195.35C531.743 193.089 530.473 190.023 530.473 186.826Z" fill="#F3F9FF"/>
<path d="M553.514 185.818C553.29 183.379 552.26 181.083 550.586 179.294C548.913 177.505 546.692 176.323 544.272 175.937C541.853 175.55 539.374 175.979 537.226 177.157C535.078 178.335 533.384 180.195 532.41 182.443C531.436 184.691 531.238 187.199 531.848 189.572C532.457 191.945 533.84 194.047 535.776 195.547C537.713 197.048 540.094 197.86 542.544 197.857C544.994 197.854 547.373 197.036 549.306 195.531L542.527 186.826L553.514 185.818Z" fill="#FFA600"/>
<path d="M551.023 189.548H548.253C548.166 189.547 548.081 189.512 548.019 189.45C547.957 189.387 547.922 189.303 547.921 189.215C547.921 189.172 547.93 189.128 547.946 189.088C547.963 189.048 547.988 189.011 548.018 188.98C548.049 188.949 548.086 188.925 548.126 188.908C548.167 188.891 548.21 188.883 548.253 188.883H551.023C551.111 188.883 551.195 188.919 551.257 188.981C551.319 189.043 551.353 189.127 551.353 189.215C551.353 189.303 551.319 189.387 551.257 189.449C551.195 189.512 551.111 189.547 551.023 189.548Z" fill="#A6C7F9"/>
<path d="M579.58 250.888H519.441V215.351H520.189V250.14H579.58V250.888Z" fill="#A6C7F9"/>
<path d="M538.241 238.035C530.878 232.175 523.049 238.035 523.049 238.035V248.055H578.086V222.158C563.131 222.536 545.602 243.895 538.241 238.035Z" opacity=".5" fill="#BBDEFB"/>
<path d="M523.678 218.051H549.326C549.493 218.051 549.653 217.985 549.771 217.867C549.889 217.749 549.956 217.588 549.956 217.422C549.956 217.255 549.889 217.094 549.771 216.976C549.653 216.858 549.493 216.792 549.326 216.792H523.678C523.512 216.792 523.351 216.858 523.233 216.976C523.115 217.094 523.049 217.255 523.049 217.422C523.049 217.588 523.115 217.749 523.233 217.867C523.351 217.985 523.512 218.051 523.678 218.051Z" fill="#A6C7F9"/>
<path d="M523.679 221.14H549.326C549.483 221.126 549.63 221.054 549.736 220.937C549.843 220.821 549.902 220.669 549.902 220.511C549.902 220.353 549.843 220.201 549.736 220.084C549.63 219.968 549.483 219.895 549.326 219.881H523.679C523.521 219.895 523.375 219.968 523.269 220.084C523.162 220.201 523.103 220.353 523.103 220.511C523.103 220.669 523.162 220.821 523.269 220.937C523.375 221.054 523.521 221.126 523.679 221.14Z" fill="#A6C7F9"/>
<path d="M540.545 222.787H523.565C523.28 222.787 523.049 223.018 523.049 223.304V223.53C523.049 223.815 523.28 224.046 523.565 224.046H540.545C540.83 224.046 541.061 223.815 541.061 223.53V223.304C541.061 223.018 540.83 222.787 540.545 222.787Z" fill="#A6C7F9"/>
<path d="M429.509 0H236.663V290.834H429.509V0Z" fill="#1976D2"/>
<path d="M410.562 16.2673H255.297V189.329H410.562V16.2673Z" fill="#F3F9FF"/>
<path d="M258.596 244.62C258.595 239.097 260.233 233.698 263.301 229.106C266.369 224.513 270.73 220.934 275.832 218.82C280.934 216.706 286.549 216.153 291.966 217.23C297.383 218.307 302.359 220.966 306.264 224.871C310.17 228.777 312.829 233.752 313.907 239.169C314.985 244.586 314.432 250.2 312.318 255.303C310.205 260.406 306.626 264.767 302.034 267.835C297.442 270.904 292.043 272.542 286.52 272.542C279.114 272.542 272.012 269.6 266.775 264.364C261.539 259.128 258.596 252.026 258.596 244.62Z" fill="#F3F9FF"/>
<path d="M310.118 244.62C310.118 239.295 308.317 234.126 305.008 229.953C301.699 225.781 297.076 222.85 291.891 221.637C286.705 220.424 281.262 221.001 276.446 223.272C271.629 225.544 267.723 229.378 265.361 234.151C262.999 238.923 262.32 244.355 263.435 249.562C264.55 254.769 267.393 259.446 271.503 262.833C275.612 266.22 280.746 268.118 286.07 268.218C291.395 268.319 296.597 266.615 300.831 263.385L286.515 244.62L308.571 253.038C309.597 250.35 310.121 247.497 310.118 244.62Z" fill="#16A75C"/>
<path d="M353.735 244.62C353.734 239.097 355.372 233.698 358.44 229.106C361.508 224.513 365.869 220.934 370.971 218.82C376.073 216.706 381.688 216.153 387.105 217.23C392.522 218.307 397.498 220.966 401.403 224.871C405.309 228.777 407.968 233.752 409.046 239.169C410.124 244.586 409.571 250.2 407.457 255.303C405.344 260.406 401.765 264.767 397.173 267.835C392.581 270.904 387.182 272.542 381.659 272.542C374.253 272.542 367.151 269.6 361.914 264.364C356.678 259.128 353.735 252.026 353.735 244.62Z" fill="#F3F9FF"/>
<path d="M381.659 221.015C377.007 221.015 372.458 222.391 368.585 224.968C364.712 227.545 361.687 231.21 359.89 235.501C358.092 239.792 357.603 244.518 358.484 249.087C359.364 253.655 361.574 257.861 364.838 261.177L381.659 244.62L403.716 253.038C405.077 249.463 405.55 245.612 405.093 241.814C404.637 238.016 403.265 234.386 401.095 231.236C398.925 228.085 396.022 225.509 392.637 223.729C389.251 221.948 385.484 221.017 381.659 221.015Z" fill="#16A75C"/>
<path d="M378.209 232.636H368.162C367.971 232.637 367.789 232.712 367.655 232.847C367.52 232.981 367.445 233.164 367.444 233.354C367.445 233.544 367.52 233.726 367.655 233.86C367.789 233.995 367.971 234.071 368.162 234.071H378.209C378.399 234.071 378.581 233.995 378.716 233.86C378.85 233.726 378.926 233.544 378.927 233.354C378.926 233.164 378.85 232.981 378.716 232.847C378.581 232.712 378.399 232.637 378.209 232.636Z" fill="#A6C7F9"/>
<path d="M378.209 234.907H368.162C367.971 234.907 367.789 234.983 367.654 235.118C367.52 235.252 367.444 235.435 367.444 235.625C367.444 235.816 367.52 235.998 367.654 236.133C367.789 236.267 367.971 236.343 368.162 236.343H378.209C378.399 236.343 378.582 236.267 378.717 236.133C378.851 235.998 378.927 235.816 378.927 235.625C378.927 235.435 378.851 235.252 378.717 235.118C378.582 234.983 378.399 234.907 378.209 234.907Z" fill="#A6C7F9"/>
<path d="M372.317 237.189H368.162C367.971 237.189 367.789 237.265 367.654 237.399C367.52 237.534 367.444 237.716 367.444 237.907C367.444 238.097 367.52 238.28 367.654 238.414C367.789 238.549 367.971 238.624 368.162 238.624H372.317C372.507 238.624 372.689 238.549 372.824 238.414C372.959 238.28 373.034 238.097 373.034 237.907C373.034 237.716 372.959 237.534 372.824 237.399C372.689 237.265 372.507 237.189 372.317 237.189Z" fill="#A6C7F9"/>
<path d="M282.879 232.636H272.829C272.639 232.637 272.457 232.713 272.323 232.847C272.189 232.982 272.113 233.164 272.113 233.354C272.113 233.544 272.189 233.726 272.323 233.86C272.457 233.995 272.639 234.071 272.829 234.071H282.879C283.069 234.071 283.251 233.995 283.385 233.86C283.52 233.726 283.596 233.544 283.596 233.354C283.596 233.164 283.52 232.981 283.385 232.847C283.251 232.712 283.069 232.637 282.879 232.636Z" fill="#A6C7F9"/>
<path d="M282.879 234.907H272.829C272.638 234.907 272.456 234.983 272.321 235.118C272.187 235.252 272.111 235.435 272.111 235.625C272.111 235.816 272.187 235.998 272.321 236.133C272.456 236.267 272.638 236.343 272.829 236.343H282.879C283.069 236.343 283.252 236.267 283.386 236.133C283.521 235.998 283.596 235.816 283.596 235.625C283.596 235.435 283.521 235.252 283.386 235.118C283.252 234.983 283.069 234.907 282.879 234.907Z" fill="#A6C7F9"/>
<path d="M276.979 237.189H272.829C272.638 237.189 272.456 237.265 272.321 237.399C272.187 237.534 272.111 237.716 272.111 237.907C272.111 238.097 272.187 238.28 272.321 238.414C272.456 238.549 272.638 238.624 272.829 238.624H276.979C277.169 238.624 277.352 238.549 277.486 238.414C277.621 238.28 277.696 238.097 277.696 237.907C277.696 237.716 277.621 237.534 277.486 237.399C277.352 237.265 277.169 237.189 276.979 237.189Z" fill="#A6C7F9"/>
<path d="M285.505 78.1162H269.122V180.178H285.505V78.1162Z" fill="#9BDBB3"/>
<path d="M312.346 49.6682H295.963V180.18H312.346V49.6682Z" fill="#9BDBB3"/>
<path d="M341.635 102.799H325.252V180.18H341.635V102.799Z" fill="#9BDBB3"/>
<path d="M370.136 67.0916H353.753V180.18H370.136V67.0916Z" fill="#9BDBB3"/>
<path d="M398.782 117.944H382.399V180.178H398.782V117.944Z" fill="#9BDBB3"/>
<path d="M369.357 52.3779H355.482C355.102 52.3779 354.737 52.5292 354.467 52.7983C354.198 53.0675 354.047 53.4326 354.047 53.8133C354.047 54.194 354.198 54.559 354.467 54.8282C354.737 55.0974 355.102 55.2486 355.482 55.2486H369.357C369.738 55.2486 370.103 55.0974 370.372 54.8282C370.642 54.559 370.793 54.194 370.793 53.8133C370.793 53.4326 370.642 53.0675 370.372 52.7983C370.103 52.5292 369.738 52.3779 369.357 52.3779Z" fill="#A6C7F9"/>
<path d="M358.643 57.6006H355.482C355.102 57.6006 354.737 57.7518 354.467 58.021C354.198 58.2902 354.047 58.6553 354.047 59.0359C354.047 59.4166 354.198 59.7817 354.467 60.0509C354.737 60.3201 355.102 60.4713 355.482 60.4713H358.643C359.023 60.4713 359.388 60.3201 359.658 60.0509C359.927 59.7817 360.078 59.4166 360.078 59.0359C360.078 58.6553 359.927 58.2902 359.658 58.021C359.388 57.7518 359.023 57.6006 358.643 57.6006Z" fill="#A6C7F9"/>
<path d="M312.183 30.1499H298.307C298.119 30.1499 297.932 30.187 297.758 30.2592C297.584 30.3313 297.426 30.437 297.293 30.5703C297.159 30.7036 297.054 30.8618 296.981 31.036C296.909 31.2101 296.872 31.3968 296.872 31.5853C296.872 31.7738 296.909 31.9604 296.981 32.1345C297.054 32.3087 297.159 32.4669 297.293 32.6002C297.426 32.7335 297.584 32.8392 297.758 32.9114C297.932 32.9835 298.119 33.0206 298.307 33.0206H312.183C312.371 33.0206 312.558 32.9835 312.732 32.9114C312.906 32.8392 313.064 32.7335 313.198 32.6002C313.331 32.4669 313.437 32.3087 313.509 32.1345C313.581 31.9604 313.618 31.7738 313.618 31.5853C313.618 31.3968 313.581 31.2101 313.509 31.036C313.437 30.8618 313.331 30.7036 313.198 30.5703C313.064 30.437 312.906 30.3313 312.732 30.2592C312.558 30.187 312.371 30.1499 312.183 30.1499Z" fill="#A6C7F9"/>
<path d="M301.468 35.3728H298.307C297.927 35.3741 297.563 35.5258 297.294 35.7947C297.025 36.0636 296.873 36.4279 296.872 36.8082C296.873 37.1884 297.025 37.5527 297.294 37.8216C297.563 38.0905 297.927 38.2422 298.307 38.2435H301.468C301.848 38.2422 302.212 38.0905 302.481 37.8216C302.75 37.5527 302.902 37.1884 302.903 36.8082C302.902 36.4277 302.751 36.063 302.482 35.7939C302.213 35.5249 301.848 35.3735 301.468 35.3728Z" fill="#A6C7F9"/>
<path d="M340.381 87.5642H326.506C326.125 87.5642 325.76 87.7154 325.491 87.9846C325.222 88.2538 325.071 88.6189 325.071 88.9996C325.071 89.3803 325.222 89.7454 325.491 90.0145C325.76 90.2837 326.125 90.4349 326.506 90.4349H340.381C340.762 90.4349 341.127 90.2837 341.396 90.0145C341.665 89.7454 341.816 89.3803 341.816 88.9996C341.816 88.6189 341.665 88.2538 341.396 87.9846C341.127 87.7154 340.762 87.5642 340.381 87.5642Z" fill="#A6C7F9"/>
<path d="M329.666 92.7866H326.506C326.126 92.7879 325.761 92.9396 325.492 93.2085C325.224 93.4774 325.072 93.8417 325.071 94.222C325.072 94.6022 325.224 94.9665 325.492 95.2354C325.761 95.5043 326.126 95.656 326.506 95.6573H329.666C330.047 95.6566 330.411 95.5052 330.68 95.2362C330.949 94.9671 331.101 94.6024 331.102 94.222C331.1 93.8417 330.949 93.4774 330.68 93.2085C330.411 92.9396 330.046 92.7879 329.666 92.7866Z" fill="#A6C7F9"/>
<path d="M397.528 102.797H383.648C383.268 102.797 382.902 102.948 382.633 103.217C382.364 103.486 382.213 103.851 382.213 104.232C382.213 104.613 382.364 104.978 382.633 105.247C382.902 105.516 383.268 105.667 383.648 105.667H397.523C397.904 105.667 398.269 105.516 398.538 105.247C398.808 104.978 398.959 104.613 398.959 104.232C398.959 103.851 398.808 103.486 398.538 103.217C398.269 102.948 397.904 102.797 397.523 102.797H397.528Z" fill="#A6C7F9"/>
<path d="M386.814 108.019H383.648C383.268 108.019 382.902 108.17 382.633 108.44C382.364 108.709 382.213 109.074 382.213 109.455C382.213 109.835 382.364 110.2 382.633 110.47C382.902 110.739 383.268 110.89 383.648 110.89H386.809C387.189 110.89 387.554 110.739 387.824 110.47C388.093 110.2 388.244 109.835 388.244 109.455C388.244 109.074 388.093 108.709 387.824 108.44C387.554 108.17 387.189 108.019 386.809 108.019H386.814Z" fill="#A6C7F9"/>
<path d="M210.64 110.243H69.6954V189.591H210.64V110.243Z" fill="#AED3FF"/>
<path d="M215.223 110.243H74.2786V189.591H215.223V110.243Z" fill="#1976D2"/>
<path d="M130.844 166.142C140.796 156.19 140.796 140.055 130.844 130.103C120.892 120.151 104.757 120.151 94.8047 130.103C84.8527 140.055 84.8527 156.19 94.8047 166.142C104.757 176.094 120.892 176.094 130.844 166.142Z" fill="#F3F9FF"/>
<path d="M199.379 133.886H157.161C156.426 133.888 155.722 134.18 155.201 134.699C154.679 135.218 154.384 135.921 154.379 136.656C154.385 137.391 154.68 138.094 155.201 138.613C155.722 139.131 156.426 139.424 157.161 139.426H199.379C200.114 139.424 200.818 139.131 201.339 138.613C201.86 138.094 202.155 137.391 202.161 136.656C202.155 135.921 201.86 135.218 201.339 134.7C200.818 134.181 200.114 133.889 199.379 133.886Z" fill="#F3F9FF"/>
<path d="M199.379 145.341H157.161C156.426 145.343 155.722 145.635 155.201 146.154C154.679 146.673 154.384 147.376 154.379 148.111C154.384 148.846 154.679 149.55 155.201 150.069C155.722 150.587 156.426 150.879 157.161 150.881H199.379C200.114 150.879 200.818 150.586 201.339 150.068C201.86 149.549 202.155 148.846 202.161 148.111C202.156 147.376 201.861 146.673 201.34 146.154C200.819 145.635 200.114 145.343 199.379 145.341Z" fill="#F3F9FF"/>
<path d="M199.379 156.796H157.162C156.424 156.796 155.717 157.089 155.195 157.611C154.673 158.133 154.38 158.84 154.38 159.578C154.38 160.315 154.673 161.023 155.195 161.544C155.717 162.066 156.424 162.359 157.162 162.359H199.379C200.116 162.359 200.824 162.066 201.346 161.544C201.867 161.023 202.16 160.315 202.16 159.578C202.16 158.84 201.867 158.133 201.346 157.611C200.824 157.089 200.116 156.796 199.379 156.796Z" fill="#F3F9FF"/>
<path d="M89.4933 147.754H112.827V124.42C109.762 124.42 106.728 125.024 103.897 126.197C101.066 127.369 98.4942 129.088 96.3275 131.255C94.1608 133.421 92.442 135.994 91.2694 138.824C90.0968 141.655 89.4933 144.69 89.4933 147.754Z" fill="#069550"/>
<path d="M136.157 148.504H89.4933C89.494 154.692 91.9525 160.627 96.3282 165.002C100.704 169.378 106.638 171.837 112.827 171.837C119.015 171.837 124.949 169.378 129.324 165.002C133.699 160.626 136.157 154.692 136.157 148.504Z" fill="#069550"/>
<path d="M108.795 135.757H96.1337C95.7864 135.757 95.4533 135.895 95.2077 136.141C94.9622 136.386 94.8242 136.719 94.8242 137.067C94.8242 137.414 94.9622 137.747 95.2077 137.992C95.4533 138.238 95.7864 138.376 96.1337 138.376H108.795C109.142 138.376 109.475 138.238 109.721 137.992C109.967 137.747 110.104 137.414 110.104 137.067C110.104 136.719 109.967 136.386 109.721 136.141C109.475 135.895 109.142 135.757 108.795 135.757Z" fill="#4DC27E"/>
<path d="M99.0169 140.524H96.1337C95.7864 140.524 95.4533 140.662 95.2077 140.907C94.9622 141.153 94.8242 141.486 94.8242 141.833C94.8242 142.181 94.9622 142.514 95.2077 142.759C95.4533 143.005 95.7864 143.143 96.1337 143.143H99.0169C99.3642 143.143 99.6973 143.005 99.9429 142.759C100.188 142.514 100.326 142.181 100.326 141.833C100.326 141.486 100.188 141.153 99.9429 140.907C99.6973 140.662 99.3642 140.524 99.0169 140.524Z" fill="#4DC27E"/>
<path d="M127.596 154.208H114.932C114.584 154.208 114.251 154.346 114.006 154.591C113.76 154.837 113.622 155.17 113.622 155.517C113.622 155.865 113.76 156.198 114.006 156.443C114.251 156.689 114.584 156.827 114.932 156.827H127.596C127.943 156.827 128.276 156.689 128.522 156.443C128.767 156.198 128.905 155.865 128.905 155.517C128.905 155.17 128.767 154.837 128.522 154.591C128.276 154.346 127.943 154.208 127.596 154.208Z" fill="#4DC27E"/>
<path d="M117.818 158.975H114.932C114.585 158.976 114.253 159.114 114.007 159.36C113.762 159.605 113.624 159.937 113.622 160.284C113.624 160.631 113.762 160.963 114.007 161.209C114.253 161.454 114.585 161.592 114.932 161.594H117.818C118.165 161.592 118.497 161.454 118.742 161.209C118.987 160.963 119.126 160.631 119.127 160.284C119.126 159.937 118.987 159.605 118.742 159.36C118.497 159.114 118.165 158.976 117.818 158.975Z" fill="#4DC27E"/>
<path d="M59.7688 203.798V284.946H200.713V203.798H59.7688Z" fill="#AED3FF"/>
<path d="M64.3442 203.798V284.946H205.289V203.798H64.3442Z" fill="#1976D2"/>
<path d="M125.755 253.198C131.996 240.583 126.828 225.298 114.212 219.057C101.597 212.817 86.3116 217.985 80.0712 230.6C73.8309 243.215 78.9988 258.501 91.6141 264.741C104.229 270.982 119.515 265.814 125.755 253.198Z" fill="#F3F9FF"/>
<path d="M147.232 233.193H189.449C190.187 233.193 190.894 232.899 191.416 232.378C191.938 231.856 192.231 231.149 192.231 230.411C192.231 229.674 191.938 228.966 191.416 228.445C190.894 227.923 190.187 227.63 189.449 227.63H147.232C146.495 227.63 145.787 227.923 145.266 228.445C144.744 228.966 144.451 229.674 144.451 230.411C144.451 231.149 144.744 231.856 145.266 232.378C145.787 232.899 146.495 233.193 147.232 233.193Z" fill="#F3F9FF"/>
<path d="M189.449 239.085H147.232C146.495 239.085 145.787 239.378 145.266 239.9C144.744 240.421 144.451 241.129 144.451 241.867C144.451 242.604 144.744 243.312 145.266 243.833C145.787 244.355 146.495 244.648 147.232 244.648H189.449C190.187 244.648 190.894 244.355 191.416 243.833C191.938 243.312 192.231 242.604 192.231 241.867C192.231 241.129 191.938 240.421 191.416 239.9C190.894 239.378 190.187 239.085 189.449 239.085Z" fill="#F3F9FF"/>
<path d="M189.45 250.535H147.232C146.5 250.541 145.798 250.835 145.28 251.353C144.762 251.871 144.468 252.572 144.462 253.305C144.468 254.038 144.762 254.739 145.28 255.257C145.798 255.775 146.5 256.069 147.232 256.075H189.45C190.185 256.073 190.889 255.78 191.41 255.262C191.931 254.743 192.226 254.04 192.232 253.305C192.227 252.57 191.932 251.867 191.41 251.348C190.889 250.829 190.185 250.537 189.45 250.535Z" fill="#F3F9FF"/>
<path d="M102.897 242.281L79.5665 241.983C79.5665 242.082 79.5665 242.182 79.5665 242.281C79.5666 246.461 80.6897 250.565 82.8186 254.163C84.9475 257.76 88.0039 260.72 91.6683 262.733C95.3326 264.745 99.4702 265.736 103.649 265.602C107.827 265.468 111.893 264.213 115.42 261.97L102.897 242.281Z" fill="#069550"/>
<path d="M103.756 249.629H91.0923C90.3691 249.629 89.7828 250.215 89.7828 250.938C89.7828 251.661 90.3691 252.248 91.0923 252.248H103.756C104.479 252.248 105.066 251.661 105.066 250.938C105.066 250.215 104.479 249.629 103.756 249.629Z" fill="#4DC27E"/>
<path d="M93.9782 254.393H91.0949C90.9179 254.385 90.7413 254.413 90.5755 254.476C90.4097 254.538 90.2583 254.633 90.1303 254.756C90.0023 254.878 89.9005 255.025 89.8309 255.188C89.7614 255.351 89.7255 255.526 89.7255 255.704C89.7255 255.881 89.7614 256.056 89.8309 256.219C89.9005 256.382 90.0023 256.529 90.1303 256.651C90.2583 256.774 90.4097 256.869 90.5755 256.932C90.7413 256.994 90.9179 257.022 91.0949 257.014H93.9782C94.3159 256.999 94.6348 256.855 94.8686 256.611C95.1023 256.367 95.2327 256.042 95.2327 255.704C95.2327 255.366 95.1023 255.041 94.8686 254.796C94.6348 254.552 94.3159 254.408 93.9782 254.393Z" fill="#4DC27E"/>
<path d="M200.713 23.7061H59.7688V97.2391H200.713V23.7061Z" fill="#AED3FF"/>
<path d="M205.296 23.7061H64.3519V97.2391H205.296V23.7061Z" fill="#1976D2"/>
<path d="M110.677 85.8083C124.08 81.5128 131.463 67.1655 127.168 53.7626C122.872 40.3598 108.525 32.9768 95.1221 37.2722C81.7193 41.5677 74.3363 55.915 78.6317 69.3178C82.9272 82.7207 97.2745 90.1037 110.677 85.8083Z" fill="#F3F9FF"/>
<path d="M102.897 38.2205C97.7108 38.2155 92.6704 39.9387 88.5725 43.1179C84.4745 46.2971 81.5526 50.751 80.2683 55.7761C78.984 60.8012 79.4106 66.1109 81.4806 70.8665C83.5507 75.6221 87.1462 79.5524 91.6991 82.0366C95.4386 75.1142 102.897 61.5639 102.897 61.5639L113.945 82.1172C118.522 79.6562 122.146 75.7377 124.243 70.983C126.34 66.2284 126.79 60.9097 125.522 55.8703C124.253 50.8309 121.339 46.3592 117.24 43.1642C113.142 39.9692 108.094 38.2338 102.897 38.2331V38.2205Z" fill="#069550"/>
<path d="M189.45 47.3162H147.235C145.698 47.3162 144.452 48.5614 144.452 50.0975C144.452 51.6336 145.698 52.8788 147.235 52.8788H189.45C190.986 52.8788 192.232 51.6336 192.232 50.0975C192.232 48.5614 190.986 47.3162 189.45 47.3162Z" fill="#F3F9FF"/>
<path d="M189.449 58.7715H147.232C146.495 58.7715 145.787 59.0645 145.266 59.5861C144.744 60.1077 144.451 60.8152 144.451 61.5528C144.451 62.2905 144.744 62.9979 145.266 63.5195C145.787 64.0411 146.495 64.3341 147.232 64.3341H189.449C190.187 64.3341 190.894 64.0411 191.416 63.5195C191.938 62.9979 192.231 62.2905 192.231 61.5528C192.231 60.8152 191.938 60.1077 191.416 59.5861C190.894 59.0645 190.187 58.7715 189.449 58.7715Z" fill="#F3F9FF"/>
<path d="M189.45 70.2341H147.232C146.494 70.2341 145.787 70.5273 145.265 71.0491C144.743 71.571 144.45 72.2787 144.45 73.0167C144.45 73.7547 144.743 74.4625 145.265 74.9843C145.787 75.5061 146.494 75.7993 147.232 75.7993H189.45C190.187 75.7993 190.895 75.5061 191.417 74.9843C191.939 74.4625 192.232 73.7547 192.232 73.0167C192.232 72.2787 191.939 71.571 191.417 71.0491C190.895 70.5273 190.187 70.2341 189.45 70.2341Z" fill="#F3F9FF"/>
<path d="M103.756 50.4087H91.0947C90.757 50.4235 90.4381 50.5681 90.2044 50.8123C89.9707 51.0565 89.8402 51.3814 89.8402 51.7194C89.8402 52.0574 89.9707 52.3824 90.2044 52.6266C90.4381 52.8708 90.757 53.0153 91.0947 53.0301H103.756C103.933 53.0379 104.11 53.0097 104.276 52.9474C104.441 52.885 104.593 52.7897 104.721 52.6672C104.849 52.5448 104.951 52.3976 105.02 52.2347C105.09 52.0718 105.126 51.8966 105.126 51.7194C105.126 51.5423 105.09 51.367 105.02 51.2041C104.951 51.0412 104.849 50.8941 104.721 50.7716C104.593 50.6492 104.441 50.5539 104.276 50.4915C104.11 50.4291 103.933 50.401 103.756 50.4087Z" fill="#4DC27E"/>
<path d="M93.9782 55.1758H91.0948C90.748 55.1771 90.4157 55.3155 90.1704 55.5608C89.9251 55.8061 89.7867 56.1384 89.7854 56.4852C89.7861 56.8325 89.9241 57.1655 90.1695 57.4113C90.4148 57.6571 90.7475 57.7959 91.0948 57.7972H93.9782C94.3255 57.7959 94.6581 57.6571 94.9035 57.4113C95.1488 57.1655 95.2869 56.8325 95.2876 56.4852C95.2863 56.1384 95.1479 55.8061 94.9026 55.5608C94.6573 55.3155 94.325 55.1771 93.9782 55.1758Z" fill="#4DC27E"/>
<path d="M237.987 150.698C237.987 150.698 254.428 167.67 255.216 174.069C256.005 180.467 247.395 190.48 247.395 190.48L237.987 150.698Z" fill="#008444"/>
<path d="M230.959 326.763C230.959 326.763 230.397 335.785 228.652 335.914C228.421 335.931 219.799 335.931 219.799 335.931L208.794 335.868C208.794 335.868 208.867 333.217 212.083 332.655C215.299 332.094 220.685 329.835 222.634 325.582C224.684 321.109 230.959 326.763 230.959 326.763Z" fill="#163560"/>
<path d="M255.473 326.763C255.473 326.763 254.914 335.785 253.169 335.914C252.938 335.931 244.315 335.931 244.315 335.931L233.276 335.894C233.276 335.894 233.381 333.217 236.6 332.655C239.818 332.094 245.199 329.835 247.148 325.582C249.195 321.109 255.473 326.763 255.473 326.763Z" fill="#163560"/>
<path d="M218.768 230.007C218.768 230.007 221.647 248.417 232.384 281.096C243.122 313.774 244.587 327.934 244.587 327.934C246.567 328.2 248.561 328.34 250.558 328.354C252.499 328.354 256.098 327.599 256.098 327.599C256.098 327.599 256.196 291.883 251.248 275.45C246.3 259.016 250.185 216.212 250.185 216.212L218.768 230.007Z" fill="#163560"/>
<path d="M213.168 217.22C213.168 217.22 212.76 244.962 217.562 279.023C222.364 313.084 220.735 327.546 220.735 327.546C220.735 327.546 224.686 328.253 226.074 328.301C227.559 328.352 232.231 327.931 232.231 327.931C232.231 327.931 239.1 293.855 237.131 276.812C235.162 259.769 246.534 218.303 246.534 218.303L213.168 217.22Z" fill="#1C468A"/>
<path d="M235.419 152.301L229.997 156.315L222.161 154.666C222.269 153.953 222.785 150.989 223.256 148.308C223.286 148.149 223.314 147.99 223.342 147.837C223.744 145.555 224.097 143.594 224.097 143.594L231.417 139.945L234.145 138.585C234.145 138.633 233.933 141.118 233.893 141.481C233.389 147.925 235.419 152.301 235.419 152.301Z" fill="#FC9490"/>
<path d="M222.709 150.274C222.881 150.201 233.369 147.106 234.507 147.484C235.645 147.862 236.335 150.06 236.335 150.06L219.179 153.941C219.179 153.941 220.516 151.196 222.709 150.274Z" fill="#1FB767"/>
<path d="M250.941 220.645C249.163 228.756 219.577 229.71 211.949 222.354C211.081 221.516 211.04 217.613 211.365 212.347C212.007 202.066 214.062 186.594 214.135 178.692C214.212 174.906 214.633 171.135 215.394 167.426C216.299 162.841 217.553 158.333 219.146 153.941C219.146 153.941 233.598 149.27 236.303 150.065C249.349 153.89 252.729 212.536 250.941 220.645Z" fill="#069550"/>
<path d="M211.375 212.347C212.017 202.065 214.072 186.594 214.145 178.692C214.222 174.906 214.643 171.135 215.404 167.425L224.097 165.892C224.097 165.892 232.606 200.607 211.375 212.347Z" fill="#1FB767"/>
<path d="M216.084 198.014C216.084 198.014 216.676 199.429 215.432 200.381C214.188 201.333 213.38 202.874 213.669 203.999C213.959 205.125 216.691 206.961 217.628 206.666C218.565 206.371 220.501 204.886 220.295 204.291C220.088 203.697 221.589 199.081 219.287 197.303C216.986 195.526 216.084 198.014 216.084 198.014Z" fill="#FC9490"/>
<path d="M225.804 151.861C225.804 151.861 217.326 153.447 210.572 163.401C203.818 173.356 199.371 180.759 200.615 184.348C201.859 187.936 213.206 200.378 215.16 200.378C217.114 200.378 220.269 198.958 220.448 195.757C220.448 195.757 212.461 183.788 214.034 181.996C214.707 181.24 224.404 173.358 225.787 176.914C228.078 182.796 225.804 151.861 225.804 151.861Z" fill="#16A75C"/>
<path d="M233.351 141.594C231.745 144.671 225.754 147.33 223.256 148.308C223.286 148.149 223.314 147.99 223.341 147.837C223.744 145.555 224.097 143.594 224.097 143.594L231.417 139.945C233.029 139.92 234.013 140.33 233.351 141.594Z" fill="#FCA56B"/>
<path d="M221.73 143.765C221.73 143.765 232.558 147.144 234.573 140.365C236.587 133.586 239.319 129.456 232.485 127.019C225.651 124.581 223.54 126.767 222.322 128.865C221.103 130.962 218.96 142.705 221.73 143.765Z" fill="#FC9490"/>
<path d="M222.737 128.197C222.737 128.197 223.427 136.087 225.059 135.752C226.691 135.417 228.171 135.155 227.932 137.532C227.693 139.909 225.429 142.657 230.45 143.072C235.471 143.488 242.706 130.527 241.326 128.071C237.355 120.985 216.983 119.555 222.737 128.197Z" fill="#163560"/>
<path d="M27.6797 311.523L30.9785 325.416L35.9191 325.388L36.1004 311.523H27.6797Z" fill="#FC9490"/>
<path d="M69.2396 312.114L78.6248 325.415L82.2812 320.719L76.633 310.286L69.2396 312.114Z" fill="#FC9490"/>
<path d="M44.8386 128.971C43.1338 128.001 41.089 127.895 39.6612 127.981C39.9748 127.719 40.35 127.54 40.7516 127.462C39.8652 127.329 37.8859 128.218 37.8859 128.218C25.5469 123.466 23.6179 141.622 23.8773 145.845C24.1367 150.068 19.7324 151.44 13.3161 154.764C1.07526 161.108 0 169.599 0 169.599C0.0956905 169.654 0.193915 169.72 0.299678 169.79C0.909075 168.763 2.15807 166.829 3.21319 166.539C3.1729 166.632 1.95411 169.198 1.51594 170.669C5.127 173.416 11.8832 179.505 16.5922 183.819C16.5721 182.975 16.6048 181.779 16.912 181.147L17.4937 184.65C20.0119 186.964 21.752 188.596 21.752 188.596C21.4397 185.186 37.1682 167.191 45.3749 161.81C47.3718 158.869 48.082 153.674 48.1449 153.263C47.7999 157.383 47.0973 159.695 46.4653 160.994C53.4054 154.593 49.3587 131.539 44.8386 128.971Z" fill="#163560"/>
<path d="M44.8889 162.064C44.9292 162.082 40.9279 164.162 37.9161 163.338C35.0832 162.565 33.2323 158.894 33.2726 158.884C34.4713 158.647 34.8163 156.998 34.7835 149.914L35.3275 150.022L44.4508 151.823C44.4508 151.823 44.2443 154.691 44.2393 157.396C44.2317 159.669 44.3702 161.822 44.8889 162.064Z" fill="#FC9490"/>
<path d="M34.5796 131.945C34.5796 131.945 39.077 127.16 44.7228 131.693C44.7228 131.698 41.429 131.131 34.5796 131.945Z" fill="#E37970"/>
<path d="M44.4507 151.823C44.4507 151.823 44.2442 154.691 44.2392 157.396C39.1374 157.252 36.4329 152.596 35.335 150.018L44.4507 151.823Z" fill="#FF8585"/>
<path d="M34.3932 149.03C34.3932 149.03 31.7189 144.805 31.0768 141.191C30.6185 138.613 31.9329 129.054 41.5398 130.431C43.4739 130.699 45.3232 131.398 46.9513 132.476C49.0389 133.886 52.0481 136.925 48.6813 145.268L47.8075 148.086L34.3932 149.03Z" fill="#163560"/>
<path d="M80.793 317.073L75.9581 317.219L70.7279 317.38C70.7279 317.38 58.6406 303.925 51.8668 282.36C51.7081 281.856 51.5419 281.352 51.3631 280.849C47.6539 270.021 39.9634 256.455 35.9091 244.167C35.2645 242.208 34.6853 240.367 34.1666 238.627C34.0004 238.068 33.8367 237.519 33.6831 236.98C30.6965 226.602 29.8328 219.791 29.0345 212.511L58.2982 212.745C58.2982 212.745 63.0248 262.436 80.793 317.073Z" fill="#1C468A"/>
<path d="M54.2035 195.914C54.1305 209.839 56.2482 215.807 56.2482 215.807C56.2482 215.807 43.7178 222.173 28.8254 217.487C28.6516 217.431 16.4863 214.656 16.4863 214.656C16.7381 214.095 18.9516 204.71 19.1934 204.193C22.3386 197.44 24.7334 194.481 25.0985 192.403C25.791 188.53 25.8061 184.519 25.4611 180.739C24.8709 174.527 23.6612 168.389 21.85 162.417C25.9068 161.493 29.8125 159.914 34.0355 158.33C35.0075 159.541 37.8706 160.763 40.4467 160.705C43.4131 160.639 44.3398 159.385 44.224 157.972C47.3843 159.735 49.8974 161.405 49.8974 161.405C52.5843 166.071 58.0311 170.604 58.4265 177.773C58.5524 179.523 54.206 195.526 54.2035 195.914Z" fill="#E7F1FD"/>
<path d="M29.0369 197.467C27.7577 199.278 25.305 210.282 19.2161 211.665C22.3613 203.823 24.756 200.383 25.1212 197.973C25.8137 193.471 25.8288 188.812 25.4838 184.421C27.526 180.84 29.0495 178.377 29.0495 178.377C29.2107 177.798 32.2954 168.256 33.2851 176.785C34.2747 185.314 30.4672 195.443 29.0369 197.467Z" fill="#F2564B"/>
<path d="M46.1555 154.386C46.1555 154.386 34.0834 154.585 34.0683 147.066C34.0532 139.547 32.497 134.508 40.2026 134.065C47.9082 133.622 49.4115 136.487 50.0234 138.995C50.6353 141.503 49.2957 154.142 46.1555 154.386Z" fill="#FC9490"/>
<path d="M49.6735 134.815C47.81 132.549 46.3999 133.053 45.6117 133.725C43.0028 129.827 34.7558 135.465 34.7558 135.465C34.2225 138.753 32.5622 141.753 30.0594 143.951C30.0594 143.951 32.2603 145.311 37.3319 144.007C41.3232 142.979 44.2191 137.298 45.2742 134.924C45.9919 135.561 47.5053 137.036 47.9611 138.479C48.5604 140.396 48.8324 144.337 49.9756 144.203C49.9908 144.203 52.4712 138.207 49.6735 134.815Z" fill="#163560"/>
<path d="M30.8123 324.637C31.0161 326.559 30.8013 328.502 30.1827 330.333C30.1827 330.333 29.3744 334.017 33.0031 334.085C36.6318 334.153 37.5358 333.813 37.1102 331.552C36.6847 329.291 35.9191 325.385 35.9191 325.385L30.8123 324.637Z" fill="#FC9490"/>
<path d="M37.4552 335.901H29.9461C29.5356 333.975 30.1979 330.344 30.1979 330.344C34.3075 334.272 36.8786 330.246 36.8786 330.246C37.5308 331.918 37.4552 335.901 37.4552 335.901Z" fill="#C45446"/>
<path d="M91.0369 332.094C91.0369 332.094 84.3461 324.497 82.2913 320.717L77.3179 323.268L88.4381 333.711L91.0394 333.368L91.0369 332.094Z" fill="#FC9490"/>
<path d="M95.129 335.881H85.847C85.0286 335.146 84.2505 333.66 83.2961 331.716C82.7471 330.601 81.5334 329.986 80.2743 329.649V335.881H78.3554L76.5776 329.254C75.3915 327.033 76.283 324.998 77.114 323.243C78.0835 323.243 80.8912 323.94 85.8369 329.619C87.4611 331.485 89.2541 332.137 91.0369 332.094C91.0599 332.11 91.0843 332.123 91.11 332.134C93.9127 333.424 94.8318 335.01 95.129 335.881Z" fill="#C45446"/>
<path d="M94.6781 166.866C94.6781 166.866 86.7559 171.298 83.9255 172.575C82.9182 173.028 81.0951 173.877 79.2316 174.748C78.106 175.272 76.9653 175.806 75.9832 176.259C75.1733 176.639 74.2612 176.742 73.387 176.553C72.5127 176.364 71.7245 175.894 71.1433 175.214C66.8624 170.203 55.7472 159.35 44.2794 157.985L44.2417 157.967H44.2266L44.2895 158.091C44.9342 159.695 51.2221 175.401 51.4159 178.714C51.6224 182.205 52.2369 235.814 52.2369 235.814C52.2369 235.814 51.8264 238.279 56.5505 237.252C61.2746 236.224 62.5085 235.2 62.5085 235.2C62.5085 235.2 57.9758 202.128 59.2198 190.628C59.4716 188.362 59.2449 185.843 58.7388 183.214C65.7242 187.445 73.9586 189.326 73.9586 189.326C73.9586 189.326 77.0282 187.986 81.8027 185.03C83.8172 183.786 86.1289 181.804 88.4154 179.707C91.1854 177.173 95.9321 171.057 95.9321 171.057L94.6781 166.866Z" fill="#0D47A1"/>
<path d="M75.9581 317.219L70.7279 317.38C70.7279 317.38 58.6407 303.925 51.8668 282.36C51.7082 281.856 51.542 281.353 51.3632 280.849C47.6539 270.021 39.9634 256.455 35.9092 244.167C35.2645 242.208 34.6853 240.367 34.1666 238.627C34.0004 238.068 33.8367 237.519 33.6831 236.98L37.9942 233.706C37.9942 233.706 50.9301 254.657 54.9365 274.375C58.4191 291.488 72.3521 312.094 75.9581 317.219Z" fill="#163560"/>
<path d="M38.4449 276.198C38.5205 285.785 38.0345 307.829 36.7855 316.954H32.152C29.591 316.954 28.3143 316.919 28.3143 316.919C25.1817 301.055 22.9532 287.922 21.3289 276.608C19.9993 267.324 18.8107 259.366 17.9042 252.514C16.9901 245.617 16.353 239.843 16.1239 234.965C16.0886 234.196 16.0634 233.449 16.0483 232.724C16.0332 231.996 16.0307 231.286 16.0483 230.599L41.3333 228.134C41.0034 244.935 38.4072 270.625 38.4449 276.198Z" fill="#1C468A"/>
<path d="M32.1521 316.954C29.5911 316.954 28.3144 316.919 28.3144 316.919C25.1818 301.055 22.9532 287.922 21.329 276.608C19.9994 267.324 18.8108 259.366 17.9042 252.514C16.9901 245.617 16.3531 239.843 16.1239 234.965L25.4034 240.422C25.4034 240.422 19.4806 242.512 21.7394 258.329C23.9982 274.146 29.0069 314.716 32.1521 316.954Z" fill="#163560"/>
<path d="M33.3457 234.809C33.3457 234.809 31.5653 241.246 25.4033 240.425C19.2414 239.604 10.4781 235.905 10.4781 235.905C10.4781 235.905 13.1122 227.595 16.3858 216.653C20.3494 203.42 25.2573 186.36 27.569 175.607C28.1243 173.186 28.5446 170.737 28.8281 168.269L34.0457 158.345C34.0457 158.345 41.5625 175.469 41.9729 179.772C42.3834 184.076 33.3457 234.809 33.3457 234.809Z" fill="#0D47A1"/>
<path d="M55.3519 184.579C52.388 184.967 51.2498 186.543 50.8847 188.671C50.6477 189.769 50.2097 190.814 49.5929 191.753C46.639 191.912 39.6033 192.295 33.6931 192.668L33.2046 200.421C39.2295 199.636 45.1575 198.233 50.8947 196.233C51.421 196.143 52.0808 195.815 52.9093 195.14C57.165 191.655 59.5799 185.823 59.5875 184.982C59.595 184.141 58.3183 184.189 55.3519 184.579Z" fill="#FC9490"/>
<path d="M33.0736 188.802C32.7966 195.785 31.1548 209.341 16.5041 216.598L16.3857 216.653C20.3493 203.42 25.2572 186.36 27.5689 175.607C30.2608 179.619 33.2222 184.957 33.0736 188.802Z" fill="#1976D2"/>
<path d="M34.0455 158.338C34.0455 158.338 21.5126 159.227 18.5009 165.937C15.4891 172.648 14.5297 194.967 18.3624 201.539C18.3624 201.539 23.6505 203.05 32.9678 201.288L33.3127 201.222C33.3127 201.222 36.2917 193.919 33.6225 192.492C33.6225 192.492 25.7482 192.902 26.5716 190.301C27.395 187.7 34.0455 158.338 34.0455 158.338Z" fill="#0D47A1"/>
<path d="M103.174 161.601C96.4333 160.735 94.7311 166.866 94.7311 166.866L95.9902 171.079C98.0677 171.366 99.8858 170.828 101.563 168.425C103.24 166.023 103.698 166.95 104.766 165.152C106.209 162.744 103.948 161.843 103.174 161.601Z" fill="#FC9490"/>
<path d="M83.9256 172.575C82.9183 173.028 81.0951 173.877 79.2317 174.748C80.239 176.511 81.4754 179.734 81.8078 185.053C84.2542 183.459 86.5323 181.62 88.6068 179.566C92.16 176.078 95.9272 171.079 95.9272 171.079L94.6681 166.866C94.6681 166.866 86.756 171.298 83.9256 172.575Z" fill="#FC9490"/>
<path d="M441.601 221.427C441.601 221.427 436.817 222.659 433.76 221.742C430.703 220.826 425.468 222.332 424.621 223.442C423.775 224.553 424.088 224.996 425.596 225.378C427.104 225.761 432.443 228.04 435.953 226.723C439.464 225.406 444.042 225.356 444.042 225.356L441.601 221.427Z" fill="#FC9490"/>
<path d="M483.04 179.775C483.04 179.775 477.654 218.051 468.735 221.483C464.335 223.175 444.885 227.011 439.134 227.396C439.134 227.396 437.723 226.253 438.066 221.604C438.066 221.604 458.443 214.123 461.339 210.056C465.645 204.012 458.662 185.32 464.069 179.634C469.475 173.948 478.583 171.503 483.04 179.775Z" fill="#1C468A"/>
<path d="M482.36 327.279V318.931H495.503C495.674 318.931 495.838 318.863 495.959 318.743C496.08 318.622 496.147 318.458 496.147 318.287V316.95C496.147 316.779 496.08 316.615 495.959 316.494C495.838 316.373 495.674 316.305 495.503 316.305H482.36V268.795C482.359 268.152 482.104 267.537 481.65 267.082C481.196 266.628 480.58 266.372 479.938 266.37H477.324C476.682 266.372 476.066 266.628 475.612 267.082C475.159 267.537 474.903 268.152 474.902 268.795V316.305H461.762C461.591 316.305 461.426 316.373 461.305 316.494C461.184 316.614 461.115 316.778 461.115 316.95V318.287C461.115 318.458 461.184 318.622 461.305 318.743C461.426 318.864 461.591 318.931 461.762 318.931H474.902V327.279C465.393 327.997 457.778 331.419 455.64 335.841H501.612C499.484 331.419 491.859 327.997 482.36 327.279Z" fill="#3A4ACE"/>
<path d="M481.225 260.429C479.645 263.055 477.887 265.57 475.962 267.956C470.17 275.258 463.875 281.302 462.774 286.986C462.529 288.224 462.193 289.443 461.767 290.632C461.309 291.936 460.742 293.309 460.087 294.726C457.632 300.062 453.958 306.041 450.292 311.475C443.951 320.87 437.988 328.712 437.988 328.712L427.054 328.246C427.492 327.15 432.262 314.177 438.638 298.322C441.229 291.888 443.984 285.042 446.64 278.429C446.995 277.547 447.348 276.666 447.7 275.8C448.511 273.785 449.312 271.788 450.093 269.852L460.853 243.114C460.853 243.114 484.796 234.049 487.294 239.921C489.323 244.778 487.649 249.528 481.225 260.429Z" fill="#163560"/>
<path d="M437.635 326.723C437.635 326.723 437.076 335.745 435.331 335.876C435.099 335.891 426.477 335.891 426.477 335.891L415.473 335.828C415.473 335.828 415.543 333.177 418.762 332.615C421.98 332.054 427.361 329.795 429.31 325.544C431.36 321.069 437.635 326.723 437.635 326.723Z" fill="#163560"/>
<path d="M462.956 300.947C462.956 300.947 470.56 305.835 469.823 307.421C469.724 307.633 465.522 315.159 465.522 315.159L460.1 324.728C460.1 324.728 457.834 323.374 458.899 320.291C459.964 317.209 460.629 311.405 457.866 307.63C454.96 303.669 462.956 300.947 462.956 300.947Z" fill="#163560"/>
<path d="M452.664 238.821C452.664 238.821 422.612 257.541 419.258 270.121C415.903 282.702 459.234 309.536 459.234 309.536C459.234 309.536 463.988 305.343 464.827 302.268C464.827 302.268 445.24 278.804 440.989 273.544C438.381 270.313 479.57 262.36 484.602 254.534C489.633 246.707 487.832 240.12 487.832 240.12L452.664 238.821Z" fill="#1C468A"/>
<path d="M509.38 262.859H447.874C446.639 262.859 445.638 263.861 445.638 265.096V277.397C445.638 278.632 446.639 279.633 447.874 279.633H509.38C510.615 279.633 511.617 278.632 511.617 277.397V265.096C511.617 263.861 510.615 262.859 509.38 262.859Z" fill="#069550"/>
<path d="M466.562 173.227C464.794 174.319 463.243 175.725 461.984 177.377C469.183 179.238 481.122 172.567 481.122 172.567C481.122 172.567 476.488 169.453 474.771 162.611C474.685 162.266 474.605 161.913 474.537 161.551C474.297 160.315 474.166 159.062 474.146 157.803L470.838 160.767L465.335 165.673C465.495 167.541 465.765 169.399 466.146 171.235C466.267 171.857 466.403 172.517 466.562 173.227Z" fill="#FC9490"/>
<path d="M488.706 207.182C487.676 221.052 489.409 242.137 488.24 245.791C487.233 248.944 475.35 247.078 470.757 246.025C469.057 245.635 467 245.078 464.872 244.421C458.942 242.585 452.48 239.964 451.777 238.017C451.75 237.944 451.729 237.869 451.712 237.793C451.654 237.524 451.659 237.245 451.725 236.977C451.956 235.985 452.848 234.91 452.951 232.445C453.069 229.7 453.052 226.472 453.155 222.996C453.155 222.606 453.155 222.178 453.208 221.79V221.647C453.208 221.574 453.208 221.501 453.208 221.425C453.308 217.552 453.51 213.478 453.744 209.441C453.895 206.903 454.066 204.405 454.265 201.985C454.782 195.77 455.479 190.245 456.403 186.752C457.914 181.059 461.233 177.345 464.26 174.622L466.448 172.746C468.891 173.28 471.779 172.925 474.391 171.689C477.216 170.347 478.193 169.385 478.671 169.747C485.229 174.794 489.915 190.225 488.706 207.182Z" fill="#3A4ACE"/>
<path d="M464.907 244.449C458.977 242.613 452.515 239.992 451.812 238.045C451.787 237.972 451.766 237.897 451.75 237.821C451.75 237.549 451.75 237.277 451.762 237.005C451.994 236.013 452.883 234.938 452.988 232.472C453.107 229.728 453.089 226.499 453.192 223.024C453.192 222.634 453.192 222.206 453.245 221.818V221.675C453.245 221.602 453.245 221.529 453.245 221.453L475.657 211.295C475.657 211.295 476.951 229.357 464.907 244.449Z" fill="#1C468A"/>
<path d="M465.335 165.673C465.494 167.542 465.765 169.399 466.146 171.235C471.517 169.5 473.952 164.648 474.766 162.591C474.997 162.011 475.098 161.651 475.098 161.651L474.532 161.53L470.832 160.747L465.335 165.673Z" fill="#FF8585"/>
<path d="M463.159 165.63C463.159 165.63 474.957 166.96 475.675 159.601C476.392 152.243 478.394 147.456 470.89 146.295C463.386 145.135 461.648 147.806 460.817 150.199C459.986 152.591 460.11 165.094 463.159 165.63Z" fill="#FC9490"/>
<path d="M475.622 160.108C475.622 160.108 474.866 150.34 464.136 149.327C456.781 148.635 460.881 142.302 461.664 141.292C461.664 141.292 467.299 142.065 473.076 143.019C485.203 145.024 476.821 158.587 475.622 160.108Z" fill="#3A4ACE"/>
<path d="M409.739 203.909L408.706 204.244L417.493 231.285L418.525 230.95L409.739 203.909Z" fill="#4A75CB"/>
<path d="M447.25 228.992L417.419 229.627L417.457 231.412L447.288 230.777L447.25 228.992Z" fill="#4A75CB"/>
<path d="M444.069 227.315C444.069 227.315 439.441 229.078 436.311 228.489C433.181 227.899 428.132 230 427.414 231.188C426.696 232.377 427.054 232.79 428.595 233.006C430.136 233.223 435.694 234.895 439.038 233.198C442.382 231.5 446.925 230.949 446.925 230.949L444.069 227.315Z" fill="#FC9490"/>
<path d="M480.663 181.351C480.663 181.351 479.53 219.992 471.044 224.382C466.856 226.55 447.95 232.505 442.274 233.523C442.274 233.523 440.748 232.54 440.574 227.879C440.574 227.879 460.002 218.197 462.432 213.833C466.045 207.341 457.045 189.545 461.792 183.298C466.539 177.05 475.31 173.615 480.663 181.351Z" fill="#3A4ACE"/>
<path d="M611.218 337.072H6.35328C6.197 337.072 6.04715 337.01 5.93664 336.9C5.82613 336.789 5.76404 336.639 5.76404 336.483C5.76404 336.326 5.82605 336.176 5.93649 336.065C6.04692 335.954 6.19677 335.892 6.35328 335.891H611.218C611.374 335.892 611.523 335.955 611.634 336.066C611.744 336.177 611.806 336.327 611.807 336.483C611.806 336.639 611.744 336.788 611.634 336.899C611.523 337.009 611.374 337.071 611.218 337.072Z" fill="#9E9E9E"/>
</g>
<defs>
<clipPath id="clip0_2959_75772">
<rect width="629.542" height="337.105" fill="white"/>
</clipPath>
</defs>
</svg>
