<svg xmlns:inkscape="http://www.inkscape.org/namespaces/inkscape" xmlns:sodipodi="http://sodipodi.sourceforge.net/DTD/sodipodi-0.dtd" xmlns="http://www.w3.org/2000/svg" xmlns:svg="http://www.w3.org/2000/svg" viewBox="0 0 8.4667997 10.583499624999998" version="1.1" x="0px" y="0px"><g transform="translate(-121.61406,-105.25389)"><path style="font-variation-settings:'wght' 700;" d="m 125.55295,110.27843 a 0.26153654,0.26296145 0 0 1 -0.26154,0.26296 0.26153654,0.26296145 0 0 1 -0.26153,-0.26296 0.26153654,0.26296145 0 0 1 0.26153,-0.26296 0.26153654,0.26296145 0 0 1 0.26154,0.26296 z" stroke-width="0.529167" stroke-linecap="round" stroke-linejoin="round"/><path style="color:#000000;" d="m 125.32227,106.3125 c -1.45931,-1e-5 -2.64863,1.18807 -2.64844,2.64648 1.1e-4,1.45843 1.18938,2.64454 2.64844,2.64454 1.25533,0 2.30915,-0.87934 2.58007,-2.05469 a 0.264584,0.264584 0 0 0 -0.19921,-0.31836 0.264584,0.264584 0 0 0 -0.31641,0.19922 c -0.21652,0.93934 -1.05655,1.64453 -2.06445,1.64453 -1.17341,0 -2.11906,-0.94298 -2.11914,-2.11524 -1.6e-4,-1.17214 0.94552,-2.11719 2.11914,-2.11718 0.57284,0 1.01855,0.20664 1.43359,0.58008 a 0.264584,0.264584 0 0 0 0.37305,-0.0195 0.264584,0.264584 0 0 0 -0.0195,-0.37304 c -0.48735,-0.4385 -1.0807,-0.7168 -1.78711,-0.7168 z m 2.04296,1.4082 a 0.264584,0.264584 0 0 0 -0.12304,0.35352 c 0.0479,0.0998 0.0875,0.20403 0.11914,0.31055 a 0.264584,0.264584 0 0 0 0.32812,0.17773 0.264584,0.264584 0 0 0 0.17969,-0.32812 c -0.0397,-0.13372 -0.0905,-0.26396 -0.15039,-0.38868 a 0.264584,0.264584 0 0 0 -0.35352,-0.125 z" fill="#000000" stroke-linecap="round" stroke-linejoin="round"/><path style="color:#000000;" d="m 127.26172,110.07617 a 0.2645835,0.2645835 0 0 0 -0.1875,0.0762 0.2645835,0.2645835 0 0 0 0,0.375 l 1.29101,1.29102 c 0.11851,0.11851 0.12712,0.18326 0.12696,0.21289 -1.6e-4,0.0296 -0.016,0.053 -0.0332,0.0703 -0.0146,0.0146 -0.0393,0.0309 -0.0703,0.0312 -0.031,3.3e-4 -0.0952,-0.007 -0.21289,-0.125 l -1.29297,-1.29297 a 0.2645835,0.2645835 0 0 0 -0.37304,0 0.2645835,0.2645835 0 0 0 0,0.375 l 1.29101,1.29297 c 0.18828,0.18832 0.39943,0.28134 0.59375,0.2793 0.19432,-0.002 0.3449,-0.0909 0.43945,-0.18555 0.0949,-0.095 0.18646,-0.24881 0.1875,-0.44336 0.001,-0.19455 -0.0937,-0.40234 -0.28125,-0.58984 l -1.29101,-1.28906 a 0.2645835,0.2645835 0 0 0 -0.1875,-0.0781 z" fill="#000000" stroke-linecap="round" stroke-linejoin="round"/><path style="" d="m 127.25661,110.33524 1.2959,1.29595 c 0.306,0.30601 0.20668,0.54523 0.0945,0.65748 -0.10913,0.10918 -0.35225,0.21236 -0.65825,-0.0937 l -1.29593,-1.296" fill="#000000" stroke="none"/><path style="color:#000000;" d="m 125.29102,107.375 c -0.60854,0 -1.10547,0.50182 -1.10547,1.11133 a 0.2645835,0.2645835 0 0 0 0.26367,0.26562 0.2645835,0.2645835 0 0 0 0.26562,-0.26562 c 1e-5,-0.32508 0.25518,-0.58203 0.57618,-0.58203 0.32099,-1e-5 0.57812,0.25695 0.57812,0.58203 0,0.32508 -0.25713,0.58203 -0.57812,0.58203 a 0.2645835,0.2645835 0 0 0 -0.26368,0.26367 0.2645835,0.2645835 0 0 0 0.26368,0.26563 c 0.60854,0 1.10742,-0.50181 1.10742,-1.11133 0,-0.60952 -0.49889,-1.11134 -1.10742,-1.11133 z" fill="#000000" stroke-linecap="round" stroke-linejoin="round"/><path style="color:#000000;" d="m 125.29102,109.06836 a 0.2645835,0.2645835 0 0 0 -0.26368,0.26367 v 0.24219 a 0.2645835,0.2645835 0 0 0 0.26368,0.26562 0.2645835,0.2645835 0 0 0 0.26562,-0.26562 v -0.24219 a 0.2645835,0.2645835 0 0 0 -0.26562,-0.26367 z" fill="#000000" stroke-linecap="round" stroke-linejoin="round"/></g><text x="0" y="23.4667997" fill="#000000" font-size="5px" font-weight="bold" font-family="'Helvetica Neue', Helvetica, Arial-Unicode, Arial, Sans-serif">Created by Meko</text><text x="0" y="28.4667997" fill="#000000" font-size="5px" font-weight="bold" font-family="'Helvetica Neue', Helvetica, Arial-Unicode, Arial, Sans-serif">from the Noun Project</text></svg>